/* XPM */
static char *knocker_ico[]={
"32 32 669 2",
"Qt c #000000",
"hE c #000001",
".d c #000100",
"hX c #000101",
"hi c #000102",
"hD c #000104",
".v c #000200",
"ia c #000203",
"#g c #000300",
"hW c #000302",
".U c #000400",
"gY c #000401",
"av c #000402",
".u c #000500",
".n c #000600",
".j c #000606",
"bS c #000700",
"co c #000800",
".s c #000801",
"gA c #000804",
".e c #000900",
"aw c #000902",
".m c #000904",
".f c #000a00",
"cT c #000a01",
".t c #000a03",
"b8 c #000a08",
"bR c #000b00",
"cU c #000c00",
".X c #000c02",
"cw c #000c05",
"b2 c #000d00",
"cn c #000e00",
"#7 c #000e07",
"dh c #000f00",
"dg c #001000",
".W c #001004",
"b1 c #001100",
"cH c #001200",
"fI c #00a116",
"f2 c #00a71b",
"hL c #00ab11",
"hM c #00af17",
"iz c #010100",
"cv c #010101",
"im c #010201",
"in c #010300",
"#H c #010301",
"aW c #010401",
".T c #010601",
"au c #010604",
"#F c #010606",
"ce c #010801",
"#i c #010901",
"il c #010902",
"bB c #010a03",
"br c #010b00",
"bj c #010b01",
"hT c #011001",
"hz c #011401",
"ik c #011501",
"h9 c #011901",
"hy c #012c01",
"fY c #01a014",
"fB c #01a311",
"f1 c #01a516",
"fZ c #01a617",
"fC c #01ad19",
"bJ c #020500",
"bC c #020600",
"gz c #020603",
"#5 c #020608",
"#G c #020705",
"gb c #020903",
"cd c #020a02",
"cu c #020b04",
"iu c #021402",
"hj c #023502",
"d4 c #02390a",
"gO c #02a11c",
"fx c #02a51a",
"hN c #02a814",
"i. c #030401",
".k c #030406",
"hU c #030603",
"bK c #030705",
"bI c #030800",
"aX c #030903",
"cc c #030c03",
"dE c #031300",
"#8 c #031906",
"hS c #031d03",
"gV c #031d04",
"eq c #03480c",
"gX c #040206",
"hh c #040207",
"hC c #040306",
"io c #040401",
".w c #040404",
"#6 c #040505",
".V c #040601",
"bk c #040604",
"hB c #040702",
"#h c #040704",
"aV c #040904",
".S c #040b04",
"b3 c #040c00",
"bQ c #040e04",
"ib c #042503",
"hY c #043205",
"gx c #043504",
"ek c #045e08",
"eh c #04650e",
"fD c #04a010",
"fb c #04a118",
"hO c #04a217",
"fW c #04a313",
"gh c #04a417",
"gP c #04a520",
"gF c #04a919",
"hK c #04ac16",
"gW c #050005",
".c c #050103",
".I c #050806",
"bA c #051606",
"c5 c #052306",
"gU c #053108",
"gg c #059b1c",
"fh c #059d20",
"gm c #059e19",
"gi c #05a110",
"eN c #05a21c",
"gp c #05a41c",
"eB c #05a60d",
"gq c #05a81c",
"iy c #060206",
"hV c #060700",
".A c #060907",
".J c #060e07",
".i c #061107",
"ew c #06180b",
"ij c #062605",
"h8 c #063f08",
"eZ c #064111",
"ey c #064710",
"gw c #065b08",
"fA c #06a210",
"hJ c #06a314",
"f4 c #06a318",
"f3 c #06a517",
"hg c #070007",
".x c #070208",
".l c #070507",
".# c #070a06",
"hf c #070a07",
"hA c #070e07",
".r c #070f08",
"dF c #071305",
"bq c #07140b",
"hd c #072a0a",
"dP c #074b0a",
"fd c #079d18",
"fS c #079e1d",
"ht c #07a118",
"fT c #07a31c",
"fU c #07a517",
"gr c #07a61b",
"fV c #07a816",
".y c #080508",
"i# c #080604",
"dH c #08270a",
"c8 c #082b08",
"it c #083008",
"fP c #083a0b",
"eI c #08740d",
"f6 c #089f09",
"gj c #08a311",
"gQ c #08a31e",
"gG c #08a515",
"h. c #08a724",
".z c #090609",
"#I c #09120e",
"ip c #092407",
"gd c #094d0f",
"hx c #094e10",
"e8 c #099d1e",
"go c #099f14",
"gH c #09a011",
"fw c #09a01a",
"fE c #09a214",
"hp c #09a314",
".b c #0a0207",
".R c #0a0f0b",
"dG c #0a160a",
".g c #0a180b",
"d7 c #0a180c",
"he c #0a1b0d",
"#j c #0a1b11",
"c7 c #0a240c",
"c6 c #0a2e0c",
"d9 c #0a430c",
"dp c #0a450b",
"ic c #0a4910",
"g. c #0a560a",
"f7 c #0aa107",
"gs c #0aa112",
"gk c #0aa117",
"gl c #0aa41a",
"h4 c #0aa522",
"fy c #0aa819",
"fc c #0aa91e",
"fX c #0aaa1c",
".a c #0b0007",
"ix c #0b040d",
"iw c #0b0509",
"ci c #0b1b0a",
"fs c #0b9f13",
"eS c #0b9f2f",
"fr c #0ba21e",
"hq c #0ba315",
"h# c #0ba525",
"f0 c #0ba81b",
"e2 c #0ba919",
"#E c #0c180c",
"hF c #0c3309",
"fo c #0c3b14",
"fp c #0c731e",
"e1 c #0c9521",
"ig c #0c9926",
"fu c #0c9b14",
"gE c #0c9b24",
"g3 c #0ca117",
"h3 c #0ca31f",
"fz c #0ca512",
"iv c #0d0606",
"at c #0d100d",
"fN c #0d1a0d",
"eX c #0d1d0d",
"ii c #0d6313",
"dY c #0d6714",
"eL c #0d890d",
"fj c #0d9323",
"eG c #0d9325",
"hm c #0d9917",
"g5 c #0d9e16",
"eM c #0d9e1b",
"gN c #0d9f1d",
"e3 c #0da00c",
"fG c #0da013",
"fa c #0da018",
"fv c #0da01a",
"f5 c #0da313",
"eO c #0da323",
"fl c #0e3d0e",
"dw c #0e6619",
"fe c #0e981a",
"ho c #0ea315",
"hu c #0ea522",
"cj c #0f190d",
"fM c #0f330f",
"fL c #0f470d",
"er c #0f561e",
"dv c #0f641b",
"dQ c #0f6f1a",
"gI c #0f9b17",
"h5 c #0f9b24",
"gt c #0f9e0e",
"e7 c #0f9f23",
"ft c #0fa113",
"g9 c #0fa51b",
".q c #101711",
"cV c #102111",
"gZ c #102d0b",
"fg c #109c1f",
"fJ c #109d20",
"dX c #117c21",
"eH c #119621",
"hs c #11a017",
"eA c #11a01f",
"eT c #11a22f",
"g6 c #11a31e",
"hn c #11a519",
"fH c #11a716",
"gB c #12370b",
"dq c #125817",
"ha c #12982a",
"gJ c #129b1d",
"h2 c #129d21",
"gf c #129e29",
"e6 c #129f22",
"g4 c #12a11a",
"f8 c #12a21a",
".Y c #131d15",
"eg c #13922a",
"gK c #13991e",
"hr c #139a13",
"eP c #139a29",
"gn c #13a31a",
".o c #141c14",
"#f c #141e15",
"ga c #141f0d",
"d3 c #143a12",
"dI c #144319",
"ep c #145f1c",
"gD c #149329",
"f# c #149a18",
"eD c #149e0f",
"fi c #14a22d",
"e4 c #14a416",
"g2 c #14a426",
"hR c #155115",
"dJ c #155f2d",
"em c #158e24",
"h1 c #159220",
"fq c #15942d",
"if c #159723",
"e9 c #15a01c",
"eC c #15a610",
".h c #162117",
"cS c #162b1c",
"gT c #166219",
"fK c #169326",
"eQ c #16962f",
"e5 c #169b1c",
"gu c #169f17",
"ff c #16a025",
"fF c #16a216",
"g# c #172609",
"ef c #17912f",
"gM c #179616",
"ez c #17982d",
"hv c #17a02c",
"eU c #17a430",
"fm c #182618",
"dD c #182b13",
"gc c #183913",
"fn c #184024",
"eY c #184121",
"ei c #186f11",
"hw c #188427",
"e# c #188437",
"gy c #191f11",
"eW c #195919",
"dV c #197222",
"dS c #19771f",
"ee c #198026",
"e. c #198438",
"e0 c #19902e",
"ih c #19912c",
"gv c #19941e",
"gR c #199a1f",
"eR c #199a34",
"f. c #199b12",
"hI c #199e1f",
"g8 c #199f1b",
"bT c #1a2a1f",
"cC c #1a2e1a",
"d6 c #1a4121",
"hc c #1a6120",
"dT c #1a7219",
"hl c #1a9828",
"eF c #1a9c2c",
".B c #1b271b",
"cG c #1b2d17",
"ed c #1b6118",
"du c #1b752b",
"b0 c #1c301d",
"hP c #1c9a26",
"iA c #1d1d1d",
"hG c #1d7621",
"hQ c #1d8423",
"el c #1d8f26",
"ie c #1d932b",
"eE c #1d971e",
".p c #1e261e",
"ex c #1e4823",
"gC c #1e6522",
"et c #1e722f",
"g0 c #1e7326",
"dR c #1e8a2f",
"ea c #1e8b3c",
"fR c #1e9730",
"d5 c #1f5623",
"hZ c #1f6b21",
"ge c #1f872d",
"hH c #1f9727",
"fQ c #207a30",
"cI c #21341e",
"bW c #213c27",
"hk c #217827",
"ej c #217b20",
"g7 c #219619",
"h6 c #21982e",
"c4 c #22411e",
"c9 c #22471f",
"es c #226f31",
"id c #22862b",
"en c #22912b",
"ax c #233d29",
"ec c #236622",
"dU c #237928",
"eV c #239423",
"gS c #239424",
"bX c #243525",
"d8 c #244425",
"iq c #244a21",
"is c #245a24",
"dK c #247237",
"cf c #253025",
"eo c #257e2c",
"g1 c #259131",
"f9 c #259229",
"ev c #265a2f",
"dr c #27752b",
"gL c #27971e",
"eJ c #28921a",
"eK c #289420",
"b4 c #292f27",
"bP c #29302a",
"fO c #293d25",
"hb c #2a8335",
"dW c #2a9536",
"dO c #2b5a2b",
"ir c #2b5f2b",
"eb c #2b7630",
"fk c #2b8427",
"dZ c #2c6b2c",
"h7 c #2c762b",
"dt c #2c7f3b",
"cD c #2d3e29",
"#J c #31463a",
"eu c #318640",
"cp c #343c33",
".Q c #353f36",
"bw c #35523a",
"ds c #35853b",
"aU c #364236",
"h0 c #3a923c",
"a3 c #3f4c41",
".H c #404541",
"#4 c #414c42",
"d2 c #426040",
"bD c #43483d",
".8 c #435647",
"bc c #44423c",
".K c #475448",
"dL c #479256",
"cb c #48524b",
"d0 c #486f45",
"dN c #497447",
"bd c #4a4d42",
".7 c #4a5e4c",
"bv c #4b705a",
"cM c #4c5946",
"d1 c #4d724a",
"a4 c #4e4f46",
"bs c #4e5b4e",
"di c #4f6b4f",
"bz c #506b56",
"cB c #515f51",
"cm c #526c56",
"dM c #568e57",
"ct c #576b5e",
"cN c #5c6056",
".Z c #5d6764",
"bp c #5f675f",
"bb c #60655e",
"bi c #607664",
"cx c #63746b",
"#k c #67736a",
"a2 c #69796c",
"aY c #6b7f6d",
"do c #6ba06f",
"dx c #6db572",
"bH c #707b70",
"b7 c #727d70",
"ck c #728371",
"cL c #728a70",
"#e c #76807a",
"ch c #768473",
"#D c #778279",
"df c #809685",
"b9 c #83948e",
"dC c #93a48c",
"bl c #97a197",
"d. c #97c397",
"a9 c #989887",
"a8 c #98b5a0",
"cE c #99a993",
"cJ c #9cb898",
"dj c #9cbd9b",
"bL c #9ea8a2",
"c3 c #9fb699",
".C c #a1afa1",
"#9 c #a2a9a2",
"cF c #a3b89b",
"dn c #a3d2a3",
"#u c #a4b3a7",
"dy c #a5d8a0",
"cO c #a6aaa1",
".G c #a7aca8",
"bV c #abc6b4",
".P c #aebab1",
"bY c #b1cfb9",
"cK c #b2ceb3",
".L c #b4bcb4",
"as c #b4c4b5",
"#t c #b6c4b7",
"cR c #bbd4c5",
"cW c #bdc9bc",
"be c #bec1b3",
".9 c #bfd3c6",
".N c #c0ccc4",
"bZ c #c1e3cf",
"cA c #c2cdc2",
"#K c #c2d3ca",
"aJ c #c3c7b8",
"ba c #c3cac3",
"cl c #c3decc",
".M c #c4cec6",
".D c #c4d4c4",
"bx c #c4e1cd",
"dk c #c4e5c2",
"d# c #c4e7bf",
"dm c #c4edc2",
".E c #c5d0c5",
"#3 c #c5d3c9",
"#l c #c6cec8",
"c2 c #c6e0c2",
".F c #c7d2c8",
".O c #c7d3cb",
"aT c #c7d9c8",
"cs c #c8e1d7",
".0 c #c9c9ca",
"bG c #c9dac9",
"c1 c #c9e2c9",
"#d c #cad3cb",
"aD c #cad9d0",
"dB c #cadac3",
"cZ c #caddc9",
".6 c #cae0ce",
"bh c #cae3cb",
"dl c #caefc8",
"#C c #cbd6cc",
"b6 c #cbddd0",
"a1 c #ccd9cf",
"aI c #ccdcd0",
"dA c #cce1c0",
"cr c #cce1d7",
"b5 c #cdddcf",
"bU c #cde0d2",
"bf c #cde3cd",
"bg c #cde5d2",
"dz c #cdeac5",
"aq c #cedccd",
"by c #ceeed9",
"aO c #cfc9c7",
"ar c #cfdfd3",
"#W c #cfe0d7",
"#R c #cfe2d7",
"da c #cfe4c7",
"c. c #d0ded7",
"de c #d0e3d3",
"#L c #d1ded8",
"ab c #d1dfd7",
"aR c #d1e2cf",
"#2 c #d1e2d6",
"cq c #d1e2da",
"cQ c #d1e5d9",
"c0 c #d1e7d1",
"bu c #d1eedc",
"#P c #d2dbd7",
"a7 c #d2e0d1",
"#s c #d2e3d6",
"bt c #d2e5d8",
"cY c #d3ddcc",
"bE c #d3ddd2",
"aL c #d3ded1",
"b# c #d3e0d2",
"#T c #d3e0d3",
"#V c #d3e0d4",
"dd c #d3e0d5",
".5 c #d3e3d3",
"#r c #d3e7d8",
"ap c #d4d6cd",
"db c #d4e1cc",
"aB c #d4e1d9",
"a5 c #d5cfc8",
"cg c #d5dcd2",
"#X c #d5dedf",
"c# c #d5e0d7",
"#c c #d5e1da",
"#x c #d5e1e1",
"#. c #d5e5d7",
"aS c #d5e6d7",
"## c #d5e7dd",
"ai c #d6decd",
"aa c #d6dfd6",
"#w c #d6e4dc",
"#v c #d6e7dc",
"aP c #d7d2cb",
"bO c #d7d8d2",
"bN c #d7dad2",
"al c #d7dbd8",
"cX c #d7decf",
"#y c #d7dfde",
"ca c #d7e1dc",
"#U c #d7e2d6",
"bF c #d7e4d8",
"ay c #d8dad2",
"ah c #d8dfd8",
"a. c #d8e0d5",
"#q c #d8e1da",
"#a c #d8e4da",
"#Q c #d8e7e0",
"a6 c #d9d6d0",
"aE c #d9d7d6",
".4 c #d9e0d7",
"#b c #d9e5d9",
"cP c #d9e5de",
"aC c #d9e9e0",
"#S c #d9eadc",
"aZ c #dad4cc",
"aN c #dadad8",
"#z c #dadcdc",
"cy c #daded6",
"cz c #dadfd9",
"bM c #dbded8",
"bo c #dcdcd9",
"a# c #dcddd4",
"#B c #dcdfd8",
"aH c #dce0d5",
"#M c #dce2e2",
"dc c #dce3d5",
"ac c #dce4dd",
"ak c #dce7dc",
"#0 c #dddddb",
"#n c #dddddc",
"b. c #dde0d3",
".3 c #dde1dd",
"aK c #dde2d4",
"#p c #dde4e0",
"am c #dededb",
"#O c #dedfde",
"#A c #dee0db",
"aj c #dee6d9",
"aA c #dfdbd5",
"az c #dfded8",
".2 c #dfdfde",
"#Y c #dfe2e7",
"aM c #dfe6e3",
"bn c #e0ded9",
"#o c #e0e0de",
"#m c #e0e0e1",
"bm c #e1ded9",
".1 c #e1e0e1",
"#1 c #e1e1dc",
"#N c #e1e3e1",
"aF c #e2d8d5",
"ag c #e2ddda",
"aG c #e4dad4",
"#Z c #e4e0e7",
"a0 c #e5d7d4",
"aQ c #e5e7de",
"ae c #e7d9d5",
"ad c #e7dcdd",
"an c #e7dfdf",
"af c #ead8d5",
"ao c #ebe6e2",
"QtQtQtQtQtQtQtQtQtQtQtQtQtQtQtQtQtQtQtQtQtQtQtQtQtQtQtQtQtQtQtQt",
"QtQtQtQtQtQtQtQtQtQtQtQtQtQtQtQtQtQtQtQtQtQtQtQtQtQtQtQtQtQtQtQt",
"QtQt.#.a.b.c.d.e.f.g.h.i.j.k.l.m.n.n.o.p.q.r.s.t.u.n.n.vQtQtQtQt",
"QtQt.w.x.y.z.A.B.C.D.E.F.G.H.I.J.K.L.M.N.O.P.Q.R.S.T.U.vQtQtQtQt",
"QtQt.V.W.X.Y.Z.0.1.2.3.4.5.6.7.8.9#.###a#b#c#d#e#f.e.U#g.dQtQtQt",
"QtQt#h#i#j#k#l#m#n#o#p#q#r#s#t#u#v#w#x#y#z#A#B#C#D#E#F#G.dQtQtQt",
"QtQt#H#I#J#K#L#M#N#O#P#Q#R#S#T#U#V#W#X#Y#Z#0#1#2#3#4#5#6.vQtQtQt",
"QtQt#7#8#9a.a#aaabacadaeafagahaiajakalamanaoapaqarasatauavQtQtQt",
"QtQtawaxayazaAaBaCaDaEaFaGaHaIaJaKaLaMaNaOaPaQaRaSaTaUaVaWQtQtQt",
"QtQtaXaYaZaFa0a1a2a3a4a5a6a7a8a9b.b#babbbcbdbebfbgbhbibjaWQtQtQt",
"QtQtbkblbmbnbobpbq.ebrbsbtbubvbwbxbybzbAbBbCbDbEbFbGbHbIbJQtQtQt",
"QtQtbKbLbMbNbObPbQbRbSbTbUbVbWbXbYbZb0b1b2b3b4#Tb5b6b7#i#HQtQtQt",
"QtQtb8b9c.c#cacbcccdcecfcgchcicjckclcmcncobScpcqcrcsctcucvQtQtQt",
"QtQtcwcxcyaHczcAcBcCcDcEcFcGcHcncIcJcKcLcMcNcOcPcQcRcScT.UQtQtQt",
"QtQtcUcVcWcXcYcZc0c1c2c3c4c5c6c7c8c9d.d#dadbdcdddedfdgcUbSQtQtQt",
"QtQtdhb1didjdkdldmdndodpdqdrdsdtdudvdwdxdydzdAdBdCdDdEdFdGQtQtQt",
"QtQtdHdIdJdKdLdMdNdOdPdQdRdSdTdUdVdWdXdYdZd0d1d2d3d4d5d6d7QtQtQt",
"QtQtd8d9e.e#eaebecedeeefegeheiejekelemeneoepeqereseteuevewQtQtQt",
"QtQtexeyezeAeBeCeDeEeFeGeHeIeJeKeLeMeNeOePeQeReSeTeUeVeWeXQtQtQt",
"QtQteYeZe0e1e2e3e4e5e6e7e8e9f.f#fafbfcfdfefffgfhfifjfkflfmQtQtQt",
"QtQtfnfofpfqfrfsftfufvfwfxfyfzfAfBfCfDfEfFfGfHfIfJfKfLfMfNQtQtQt",
"QtQtQtfOfPfQfRfSfTfUfVfWfXfYfZf0f1f2f3f4f5f6f7f8f9g.g#gagbQtQtQt",
"QtQtQtQtgcgdgegfggghgigjgkglgmgngogpgqgrgsgtgugvgwgxgygzgAQtQtQt",
"QtQtQtQtQtgBgCgDgEgFgGgHgIgJgKgLgMgNgOgPgQgRgSgTgUgVgWgXgYQtQtQt",
"QtQtQtQtQtQtgZg0g1g2g3gsg4g5g6g7g8g9h.h#hahbhchdhehfhghhhiQtQtQt",
"QtQtQtQtQtQtQthjhkhlhmhnhohphqhrhshthuhvhwhxhyhzhAhBhChDhEQtQtQt",
"QtQtQtQtQtQtQtQthFhGhHhIhJhKhLhMhNhOhPhQhRhShThU.UhV#ghWhXQtQtQt",
"QtQtQtQtQtQtQtQtQthYhZh0h1h2h3h4h5h6h7h8h9co.u#ghUi.i#iahiQtQtQt",
"QtQtQtQtQtQtQtQtQtQtibicidieifigihiiijikilim.U.d.uinioQtQtQtQtQt",
"QtQtQtQtQtQtQtQtQtQtQt.eipiqirisitiuiviwixiyQtizQtiAQtQtQtQtQtQt",
"QtQtQtQtQtQtQtQtQtQtQtQtQtQtQtQtQtQtQtQtQtQtQtQtQtQtQtQtQtQtQtQt",
"QtQtQtQtQtQtQtQtQtQtQtQtQtQtQtQtQtQtQtQtQtQtQtQtQtQtQtQtQtQtQtQt"};
